<svg width="39" height="39" fill="none" xmlns="http://www.w3.org/2000/svg"><path fill-rule="evenodd" clip-rule="evenodd" d="M19.5 0C8.73 0 0 8.73 0 19.5S8.73 39 19.5 39 39 30.27 39 19.5 30.27 0 19.5 0Zm-2.02 36.094c-3.7-.443-7.123-2.1-9.799-4.775A16.605 16.605 0 0 1 2.786 19.5c0-4.02 1.41-7.821 3.994-10.843.066.798.23 1.655.188 2.266-.153 2.231-.374 3.627.932 5.51.509.732.634 1.783.881 2.632.243.83 1.21 1.265 1.877 1.776 1.346 1.033 2.634 2.232 4.062 3.14.942.6 1.53.898 1.254 2.048-.222.924-.284 1.494-.762 2.318-.146.251.551 1.867.783 2.099a30.45 30.45 0 0 0 2.167 1.98c1.188.982-.116 2.257-.682 3.668Zm13.839-4.775a16.595 16.595 0 0 1-8.677 4.601c.463-1.145 1.287-2.163 2.052-2.753.666-.513 1.499-1.5 1.847-2.283.347-.78.807-1.458 1.272-2.176.663-1.022-1.633-2.563-2.377-2.886-1.673-.726-2.933-1.707-4.42-2.754-1.06-.745-3.212.39-4.409-.133-1.639-.715-2.989-1.959-4.413-3.031-1.47-1.107-1.4-2.398-1.4-4.031 1.152.042 2.79-.319 3.554.607.242.292 1.071 1.598 1.626 1.134.454-.38-.336-1.899-.488-2.256-.47-1.098 1.069-1.526 1.856-2.271 1.028-.972 3.232-2.496 3.058-3.192-.175-.697-2.206-2.67-3.399-2.362-.179.046-1.753 1.697-2.057 1.956l.025-1.616c.005-.34-.635-.69-.605-.909.075-.554 1.618-1.56 2.002-2.002-.269-.168-1.187-.957-1.464-.84-.673.28-1.433.473-2.105.753 0-.234-.029-.453-.062-.669a16.555 16.555 0 0 1 4.248-1.233l1.32.53.932 1.107.93.96.814.261 1.292-1.218-.334-.87v-.781a16.532 16.532 0 0 1 7.08 2.793c-.377.034-.793.09-1.261.15-.194-.115-.442-.167-.653-.247.612 1.317 1.25 2.615 1.9 3.914.692 1.388 2.23 2.876 2.5 4.34.318 1.727.097 3.296.271 5.327.168 1.956 2.206 4.178 2.206 4.178s.94.321 1.723.21a16.612 16.612 0 0 1-4.384 7.692Z" fill="#000" fill-opacity=".38"/></svg>