<svg width="775" height="1009" fill="none" xmlns="http://www.w3.org/2000/svg"><g opacity=".153" fill-rule="evenodd" clip-rule="evenodd" fill="#000" fill-opacity=".42"><path d="M7.302.005a7.302 7.302 0 1 0 0 14.603 7.302 7.302 0 0 0 0-14.603M7.302 63.371a7.302 7.302 0 1 0 0 14.604 7.302 7.302 0 0 0 0-14.604M7.302 126.737a7.302 7.302 0 1 0 0 14.604 7.302 7.302 0 1 0 0-14.604M7.302 190.104a7.302 7.302 0 1 0 0 14.605 7.302 7.302 0 0 0 0-14.605M7.302 253.47a7.302 7.302 0 1 0 0 14.603 7.302 7.302 0 0 0 0-14.603M7.302 316.836a7.302 7.302 0 1 0 0 14.605 7.302 7.302 0 0 0 0-14.605M7.302 380.203a7.302 7.302 0 1 0 0 14.605 7.302 7.302 0 0 0 0-14.605M7.302 443.569a7.302 7.302 0 1 0 0 14.605 7.302 7.302 0 0 0 0-14.605M7.302 506.935a7.303 7.303 0 1 0 0 14.605 7.303 7.303 0 0 0 0-14.605M7.302 570.301a7.303 7.303 0 1 0 0 14.605 7.303 7.303 0 0 0 0-14.605M7.302 633.668a7.302 7.302 0 1 0 0 14.603 7.302 7.302 0 0 0 0-14.603M7.302 697.035a7.302 7.302 0 1 0 0 14.603 7.302 7.302 0 0 0 0-14.603M7.302 760.401a7.302 7.302 0 1 0 0 14.604 7.302 7.302 0 1 0 0-14.604M7.302 823.767a7.302 7.302 0 1 0 0 14.605 7.302 7.302 0 0 0 0-14.605M7.302 887.133a7.302 7.302 0 1 0 0 14.605 7.302 7.302 0 0 0 0-14.605M7.302 940.5a7.302 7.302 0 1 0 0 14.605 7.302 7.302 0 0 0 0-14.605M7.302 993.866a7.303 7.303 0 1 0 .001 14.606 7.303 7.303 0 0 0-.001-14.606M70.668.005a7.302 7.302 0 1 0 0 14.603 7.302 7.302 0 0 0 0-14.603M70.668 63.371a7.302 7.302 0 1 0 0 14.604 7.302 7.302 0 0 0 0-14.604M70.668 126.737a7.302 7.302 0 1 0 0 14.604 7.302 7.302 0 1 0 0-14.604M70.668 190.104a7.302 7.302 0 1 0 .001 14.605 7.302 7.302 0 0 0 0-14.605M70.668 253.47a7.302 7.302 0 1 0 0 14.603 7.302 7.302 0 0 0 0-14.603M70.668 316.836a7.302 7.302 0 1 0 .001 14.605 7.302 7.302 0 0 0 0-14.605M70.668 380.203a7.302 7.302 0 1 0 .001 14.605 7.302 7.302 0 0 0 0-14.605M70.668 443.569a7.302 7.302 0 1 0 .001 14.605 7.302 7.302 0 0 0 0-14.605M70.668 506.935a7.303 7.303 0 1 0 .002 14.605 7.303 7.303 0 0 0-.002-14.605M70.668 570.301a7.303 7.303 0 1 0 .002 14.605 7.303 7.303 0 0 0-.002-14.605M70.668 633.668a7.302 7.302 0 1 0 0 14.603 7.302 7.302 0 0 0 0-14.603M70.668 697.035a7.302 7.302 0 1 0 0 14.603 7.302 7.302 0 0 0 0-14.603M70.668 760.401a7.302 7.302 0 1 0 0 14.604 7.302 7.302 0 1 0 0-14.604M70.668 823.767a7.302 7.302 0 1 0 .001 14.605 7.302 7.302 0 0 0 0-14.605M70.668 887.133a7.302 7.302 0 1 0 .001 14.605 7.302 7.302 0 0 0 0-14.605M70.668 940.5a7.302 7.302 0 1 0 .001 14.605 7.302 7.302 0 0 0 0-14.605M70.668 993.866a7.303 7.303 0 1 0 .002 14.606 7.303 7.303 0 0 0-.002-14.606M134.035.005a7.302 7.302 0 1 0 0 14.603 7.302 7.302 0 0 0 0-14.603M134.035 63.371a7.302 7.302 0 1 0 0 14.604 7.302 7.302 0 0 0 0-14.604M134.035 126.737a7.302 7.302 0 1 0 0 14.604 7.302 7.302 0 1 0 0-14.604M134.035 190.104a7.302 7.302 0 1 0 0 14.605 7.302 7.302 0 0 0 0-14.605M134.035 253.47a7.302 7.302 0 1 0 0 14.603 7.302 7.302 0 0 0 0-14.603M134.035 316.836a7.302 7.302 0 1 0 0 14.605 7.302 7.302 0 0 0 0-14.605M134.035 380.203a7.302 7.302 0 1 0 0 14.605 7.302 7.302 0 0 0 0-14.605M134.035 443.569a7.302 7.302 0 1 0 0 14.605 7.302 7.302 0 0 0 0-14.605M134.035 506.935a7.303 7.303 0 1 0 .001 14.605 7.303 7.303 0 0 0-.001-14.605M134.035 570.301a7.303 7.303 0 1 0 .001 14.605 7.303 7.303 0 0 0-.001-14.605M134.035 633.668a7.302 7.302 0 1 0 0 14.603 7.302 7.302 0 0 0 0-14.603M134.035 697.035a7.302 7.302 0 1 0 0 14.603 7.302 7.302 0 0 0 0-14.603M134.035 760.401a7.302 7.302 0 1 0 0 14.604 7.302 7.302 0 1 0 0-14.604M134.035 823.767a7.302 7.302 0 1 0 0 14.605 7.302 7.302 0 0 0 0-14.605M134.035 887.133a7.302 7.302 0 1 0 0 14.605 7.302 7.302 0 0 0 0-14.605M134.035 940.5a7.302 7.302 0 1 0 0 14.605 7.302 7.302 0 0 0 0-14.605M134.035 993.866a7.303 7.303 0 1 0 .002 14.606 7.303 7.303 0 0 0-.002-14.606M197.401.005a7.302 7.302 0 1 0 0 14.603 7.302 7.302 0 0 0 0-14.603M197.401 63.371a7.302 7.302 0 1 0 0 14.604 7.302 7.302 0 0 0 0-14.604M197.401 126.737a7.302 7.302 0 1 0 0 14.604 7.302 7.302 0 1 0 0-14.604M197.401 190.104a7.302 7.302 0 1 0 0 14.605 7.302 7.302 0 0 0 0-14.605M197.401 253.47a7.302 7.302 0 1 0 0 14.603 7.302 7.302 0 0 0 0-14.603M197.401 316.836a7.302 7.302 0 1 0 0 14.605 7.302 7.302 0 0 0 0-14.605M197.401 380.203a7.302 7.302 0 1 0 0 14.605 7.302 7.302 0 0 0 0-14.605M197.401 443.569a7.302 7.302 0 1 0 0 14.605 7.302 7.302 0 0 0 0-14.605M197.401 506.935a7.303 7.303 0 1 0 .001 14.605 7.303 7.303 0 0 0-.001-14.605M197.401 570.301a7.303 7.303 0 1 0 .001 14.605 7.303 7.303 0 0 0-.001-14.605M197.401 633.668a7.302 7.302 0 1 0 0 14.603 7.302 7.302 0 0 0 0-14.603M197.401 697.035a7.302 7.302 0 1 0 0 14.603 7.302 7.302 0 0 0 0-14.603M197.401 760.401a7.302 7.302 0 1 0 0 14.604 7.302 7.302 0 1 0 0-14.604M197.401 823.767a7.302 7.302 0 1 0 0 14.605 7.302 7.302 0 0 0 0-14.605M197.401 887.133a7.302 7.302 0 1 0 0 14.605 7.302 7.302 0 0 0 0-14.605M197.401 940.5a7.302 7.302 0 1 0 0 14.605 7.302 7.302 0 0 0 0-14.605M197.401 993.866a7.303 7.303 0 1 0 .002 14.606 7.303 7.303 0 0 0-.002-14.606M260.767.005a7.302 7.302 0 1 0 0 14.603 7.302 7.302 0 0 0 0-14.603M260.767 63.371a7.302 7.302 0 1 0 0 14.604 7.302 7.302 0 0 0 0-14.604M260.767 126.737a7.302 7.302 0 1 0 0 14.604 7.302 7.302 0 1 0 0-14.604M260.767 190.104a7.302 7.302 0 1 0 0 14.605 7.302 7.302 0 0 0 0-14.605M260.767 253.47a7.302 7.302 0 1 0 0 14.603 7.302 7.302 0 0 0 0-14.603M260.767 316.836a7.302 7.302 0 1 0 0 14.605 7.302 7.302 0 0 0 0-14.605M260.767 380.203a7.302 7.302 0 1 0 0 14.605 7.302 7.302 0 0 0 0-14.605M260.767 443.569a7.302 7.302 0 1 0 0 14.605 7.302 7.302 0 0 0 0-14.605M260.767 506.935a7.303 7.303 0 1 0 .001 14.605 7.303 7.303 0 0 0-.001-14.605M260.767 570.301a7.303 7.303 0 1 0 .001 14.605 7.303 7.303 0 0 0-.001-14.605M260.767 633.668a7.302 7.302 0 1 0 0 14.603 7.302 7.302 0 0 0 0-14.603M260.767 697.035a7.302 7.302 0 1 0 0 14.603 7.302 7.302 0 0 0 0-14.603M260.767 760.401a7.302 7.302 0 1 0 0 14.604 7.302 7.302 0 1 0 0-14.604M260.767 823.767a7.302 7.302 0 1 0 0 14.605 7.302 7.302 0 0 0 0-14.605M260.767 887.133a7.302 7.302 0 1 0 0 14.605 7.302 7.302 0 0 0 0-14.605M260.767 940.5a7.302 7.302 0 1 0 0 14.605 7.302 7.302 0 0 0 0-14.605M260.767 993.866a7.303 7.303 0 1 0 .002 14.606 7.303 7.303 0 0 0-.002-14.606M324.134.005a7.302 7.302 0 1 0 0 14.603 7.302 7.302 0 0 0 0-14.603M324.134 63.371a7.302 7.302 0 1 0 0 14.604 7.302 7.302 0 0 0 0-14.604M324.134 126.737a7.302 7.302 0 1 0 0 14.604 7.302 7.302 0 1 0 0-14.604M324.134 190.104a7.302 7.302 0 1 0 0 14.605 7.302 7.302 0 0 0 0-14.605M324.134 253.47a7.302 7.302 0 1 0 0 14.603 7.302 7.302 0 0 0 0-14.603M324.134 316.836a7.302 7.302 0 1 0 0 14.605 7.302 7.302 0 0 0 0-14.605M324.134 380.203a7.302 7.302 0 1 0 0 14.605 7.302 7.302 0 0 0 0-14.605M324.134 443.569a7.302 7.302 0 1 0 0 14.605 7.302 7.302 0 0 0 0-14.605M324.134 506.935a7.303 7.303 0 1 0 .001 14.605 7.303 7.303 0 0 0-.001-14.605M324.134 570.301a7.303 7.303 0 1 0 .001 14.605 7.303 7.303 0 0 0-.001-14.605M324.134 633.668a7.302 7.302 0 1 0 0 14.603 7.302 7.302 0 0 0 0-14.603M324.134 697.035a7.302 7.302 0 1 0 0 14.603 7.302 7.302 0 0 0 0-14.603M324.134 760.401a7.302 7.302 0 1 0 0 14.604 7.302 7.302 0 1 0 0-14.604M324.134 823.767a7.302 7.302 0 1 0 0 14.605 7.302 7.302 0 0 0 0-14.605M324.134 887.133a7.302 7.302 0 1 0 0 14.605 7.302 7.302 0 0 0 0-14.605M324.134 940.5a7.302 7.302 0 1 0 0 14.605 7.302 7.302 0 0 0 0-14.605M324.134 993.866a7.303 7.303 0 1 0 .002 14.606 7.303 7.303 0 0 0-.002-14.606M387.5.005a7.302 7.302 0 1 0 0 14.603 7.302 7.302 0 0 0 0-14.603M387.5 63.371a7.302 7.302 0 1 0 0 14.604 7.302 7.302 0 0 0 0-14.604M387.5 126.737a7.302 7.302 0 1 0 0 14.604 7.302 7.302 0 1 0 0-14.604M387.5 190.104a7.302 7.302 0 1 0 0 14.605 7.302 7.302 0 0 0 0-14.605M387.5 253.47a7.302 7.302 0 1 0 0 14.603 7.302 7.302 0 0 0 0-14.603M387.5 316.836a7.302 7.302 0 1 0 0 14.605 7.302 7.302 0 0 0 0-14.605M387.5 380.203a7.302 7.302 0 1 0 0 14.605 7.302 7.302 0 0 0 0-14.605M387.5 443.569a7.302 7.302 0 1 0 0 14.605 7.302 7.302 0 0 0 0-14.605M387.5 506.935a7.303 7.303 0 1 0 .001 14.605 7.303 7.303 0 0 0-.001-14.605M387.5 570.301a7.303 7.303 0 1 0 .001 14.605 7.303 7.303 0 0 0-.001-14.605M387.5 633.668a7.302 7.302 0 1 0 0 14.603 7.302 7.302 0 0 0 0-14.603M387.5 697.035a7.302 7.302 0 1 0 0 14.603 7.302 7.302 0 0 0 0-14.603M387.5 760.401a7.302 7.302 0 1 0 0 14.604 7.302 7.302 0 1 0 0-14.604M387.5 823.767a7.302 7.302 0 1 0 0 14.605 7.302 7.302 0 0 0 0-14.605M387.5 887.133a7.302 7.302 0 1 0 0 14.605 7.302 7.302 0 0 0 0-14.605M387.5 940.5a7.302 7.302 0 1 0 0 14.605 7.302 7.302 0 0 0 0-14.605M387.5 993.866a7.303 7.303 0 1 0 .002 14.606 7.303 7.303 0 0 0-.002-14.606M450.866.005a7.302 7.302 0 1 0 0 14.605 7.302 7.302 0 0 0 0-14.605M450.866 63.371a7.302 7.302 0 1 0 0 14.605 7.302 7.302 0 0 0 0-14.605M450.866 126.737a7.302 7.302 0 1 0 0 14.605 7.302 7.302 0 0 0 0-14.605M450.866 190.104a7.303 7.303 0 1 0 .002 14.606 7.303 7.303 0 0 0-.002-14.606M450.866 253.47a7.302 7.302 0 1 0 0 14.605 7.302 7.302 0 0 0 0-14.605M450.866 316.836a7.303 7.303 0 1 0 .002 14.606 7.303 7.303 0 0 0-.002-14.606M450.866 380.203a7.303 7.303 0 1 0 .002 14.606 7.303 7.303 0 0 0-.002-14.606M450.866 443.569a7.303 7.303 0 1 0 .002 14.606 7.303 7.303 0 0 0-.002-14.606M450.866 506.935a7.303 7.303 0 0 0 0 14.604 7.303 7.303 0 0 0 0-14.604M450.866 570.301a7.303 7.303 0 0 0 0 14.604 7.303 7.303 0 0 0 0-14.604M450.866 633.668a7.302 7.302 0 1 0 0 14.605 7.302 7.302 0 0 0 0-14.605M450.866 697.035a7.302 7.302 0 1 0 0 14.605 7.302 7.302 0 0 0 0-14.605M450.866 760.401a7.302 7.302 0 1 0 0 14.605 7.302 7.302 0 0 0 0-14.605M450.866 823.767a7.303 7.303 0 1 0 .002 14.606 7.303 7.303 0 0 0-.002-14.606M450.866 887.133a7.303 7.303 0 1 0 .002 14.606 7.303 7.303 0 0 0-.002-14.606M450.866 940.5a7.303 7.303 0 1 0 .002 14.606 7.303 7.303 0 0 0-.002-14.606M450.866 993.866a7.303 7.303 0 1 0 .001 14.603 7.303 7.303 0 0 0-.001-14.603M514.232.005a7.302 7.302 0 1 0 0 14.605 7.302 7.302 0 0 0 0-14.605M514.232 63.371a7.302 7.302 0 1 0 0 14.605 7.302 7.302 0 0 0 0-14.605M514.232 126.737a7.302 7.302 0 1 0 0 14.605 7.302 7.302 0 0 0 0-14.605M514.232 190.104a7.303 7.303 0 1 0 .002 14.606 7.303 7.303 0 0 0-.002-14.606M514.232 253.47a7.302 7.302 0 1 0 0 14.605 7.302 7.302 0 0 0 0-14.605M514.232 316.836a7.303 7.303 0 1 0 .002 14.606 7.303 7.303 0 0 0-.002-14.606M514.232 380.203a7.303 7.303 0 1 0 .002 14.606 7.303 7.303 0 0 0-.002-14.606M514.232 443.569a7.303 7.303 0 1 0 .002 14.606 7.303 7.303 0 0 0-.002-14.606M514.232 506.935a7.303 7.303 0 0 0 0 14.604 7.303 7.303 0 0 0 0-14.604M514.232 570.301a7.303 7.303 0 0 0 0 14.604 7.303 7.303 0 0 0 0-14.604M514.232 633.668a7.302 7.302 0 1 0 0 14.605 7.302 7.302 0 0 0 0-14.605M514.232 697.035a7.302 7.302 0 1 0 0 14.605 7.302 7.302 0 0 0 0-14.605M514.232 760.401a7.302 7.302 0 1 0 0 14.605 7.302 7.302 0 0 0 0-14.605M514.232 823.767a7.303 7.303 0 1 0 .002 14.606 7.303 7.303 0 0 0-.002-14.606M514.232 887.133a7.303 7.303 0 1 0 .002 14.606 7.303 7.303 0 0 0-.002-14.606M514.232 940.5a7.303 7.303 0 1 0 .002 14.606 7.303 7.303 0 0 0-.002-14.606M514.232 993.866a7.303 7.303 0 1 0 .001 14.603 7.303 7.303 0 0 0-.001-14.603M577.598.005a7.302 7.302 0 1 0 0 14.605 7.302 7.302 0 0 0 0-14.605M577.598 63.371a7.302 7.302 0 1 0 0 14.605 7.302 7.302 0 0 0 0-14.605M577.598 126.737a7.302 7.302 0 1 0 0 14.605 7.302 7.302 0 0 0 0-14.605M577.598 190.104a7.303 7.303 0 1 0 .002 14.606 7.303 7.303 0 0 0-.002-14.606M577.598 253.47a7.302 7.302 0 1 0 0 14.605 7.302 7.302 0 0 0 0-14.605M577.598 316.836a7.303 7.303 0 1 0 .002 14.606 7.303 7.303 0 0 0-.002-14.606M577.598 380.203a7.303 7.303 0 1 0 .002 14.606 7.303 7.303 0 0 0-.002-14.606M577.598 443.569a7.303 7.303 0 1 0 .002 14.606 7.303 7.303 0 0 0-.002-14.606M577.598 506.935a7.303 7.303 0 1 0 .002 14.606 7.303 7.303 0 0 0-.002-14.606M577.598 570.301a7.303 7.303 0 1 0 .002 14.606 7.303 7.303 0 0 0-.002-14.606M577.598 633.668a7.302 7.302 0 1 0 0 14.605 7.302 7.302 0 0 0 0-14.605M577.598 697.035a7.302 7.302 0 1 0 0 14.605 7.302 7.302 0 0 0 0-14.605M577.598 760.401a7.302 7.302 0 1 0 0 14.605 7.302 7.302 0 0 0 0-14.605M577.598 823.767a7.303 7.303 0 1 0 .002 14.606 7.303 7.303 0 0 0-.002-14.606M577.598 887.133a7.303 7.303 0 1 0 .002 14.606 7.303 7.303 0 0 0-.002-14.606M577.598 940.5a7.303 7.303 0 1 0 .002 14.606 7.303 7.303 0 0 0-.002-14.606M577.598 993.866a7.303 7.303 0 1 0 .001 14.603 7.303 7.303 0 0 0-.001-14.603M640.966.005a7.303 7.303 0 1 0 0 14.605 7.303 7.303 0 0 0 0-14.605M640.966 63.371a7.303 7.303 0 1 0 0 14.605 7.303 7.303 0 0 0 0-14.605M640.966 126.737a7.303 7.303 0 1 0 0 14.605 7.303 7.303 0 0 0 0-14.605M640.966 190.104a7.303 7.303 0 1 0 0 14.606 7.303 7.303 0 0 0 0-14.606M640.966 253.47a7.303 7.303 0 1 0 0 14.605 7.303 7.303 0 0 0 0-14.605M640.966 316.836a7.303 7.303 0 1 0 0 14.606 7.303 7.303 0 0 0 0-14.606M640.966 380.203a7.303 7.303 0 1 0 0 14.606 7.303 7.303 0 0 0 0-14.606M640.966 443.569a7.303 7.303 0 1 0 0 14.606 7.303 7.303 0 0 0 0-14.606M640.966 506.935a7.302 7.302 0 1 0-.001 14.603 7.302 7.302 0 0 0 .001-14.603M640.966 570.301a7.302 7.302 0 1 0-.001 14.603 7.302 7.302 0 0 0 .001-14.603M640.966 633.668a7.303 7.303 0 1 0 0 14.605 7.303 7.303 0 0 0 0-14.605M640.966 697.035a7.303 7.303 0 1 0 0 14.605 7.303 7.303 0 0 0 0-14.605M640.966 760.401a7.303 7.303 0 1 0 0 14.605 7.303 7.303 0 0 0 0-14.605M640.966 823.767a7.303 7.303 0 1 0 0 14.606 7.303 7.303 0 0 0 0-14.606M640.966 887.133a7.303 7.303 0 1 0 0 14.606 7.303 7.303 0 0 0 0-14.606M640.966 940.5a7.303 7.303 0 1 0 0 14.606 7.303 7.303 0 0 0 0-14.606M640.966 993.866a7.303 7.303 0 1 0 0 14.602 7.303 7.303 0 0 0 0-14.602M704.332.005a7.303 7.303 0 1 0 0 14.605 7.303 7.303 0 0 0 0-14.605M704.332 63.371a7.303 7.303 0 1 0 0 14.605 7.303 7.303 0 0 0 0-14.605M704.332 126.737a7.303 7.303 0 1 0 0 14.605 7.303 7.303 0 0 0 0-14.605M704.332 190.104a7.303 7.303 0 1 0 0 14.606 7.303 7.303 0 0 0 0-14.606M704.332 253.47a7.303 7.303 0 1 0 0 14.605 7.303 7.303 0 0 0 0-14.605M704.332 316.836a7.303 7.303 0 1 0 0 14.606 7.303 7.303 0 0 0 0-14.606M704.332 380.203a7.303 7.303 0 1 0 0 14.606 7.303 7.303 0 0 0 0-14.606M704.332 443.569a7.303 7.303 0 1 0 0 14.606 7.303 7.303 0 0 0 0-14.606M704.332 506.935a7.302 7.302 0 1 0-.001 14.603 7.302 7.302 0 0 0 .001-14.603M704.332 570.301a7.302 7.302 0 1 0-.001 14.603 7.302 7.302 0 0 0 .001-14.603M704.332 633.668a7.303 7.303 0 1 0 0 14.605 7.303 7.303 0 0 0 0-14.605M704.332 697.035a7.303 7.303 0 1 0 0 14.605 7.303 7.303 0 0 0 0-14.605M704.332 760.401a7.303 7.303 0 1 0 0 14.605 7.303 7.303 0 0 0 0-14.605M704.332 823.767a7.303 7.303 0 1 0 0 14.606 7.303 7.303 0 0 0 0-14.606M704.332 887.133a7.303 7.303 0 1 0 0 14.606 7.303 7.303 0 0 0 0-14.606M704.332 940.5a7.303 7.303 0 1 0 0 14.606 7.303 7.303 0 0 0 0-14.606M704.332 993.866a7.303 7.303 0 1 0 0 14.602 7.303 7.303 0 0 0 0-14.602M767.698.005a7.302 7.302 0 1 0 0 14.603 7.302 7.302 0 0 0 0-14.603M767.698 63.371a7.302 7.302 0 1 0 0 14.604 7.302 7.302 0 0 0 0-14.604M767.698 126.737a7.302 7.302 0 1 0 0 14.603 7.302 7.302 0 0 0 0-14.603M767.698 190.104a7.302 7.302 0 1 0 0 14.605 7.302 7.302 0 0 0 0-14.605M767.698 253.47a7.302 7.302 0 1 0 0 14.603 7.302 7.302 0 0 0 0-14.603M767.698 316.836a7.302 7.302 0 1 0 0 14.605 7.302 7.302 0 0 0 0-14.605M767.698 380.203a7.302 7.302 0 1 0 0 14.605 7.302 7.302 0 0 0 0-14.605M767.698 443.569a7.302 7.302 0 1 0 0 14.605 7.302 7.302 0 0 0 0-14.605M767.698 506.935a7.303 7.303 0 1 0 .001 14.605 7.303 7.303 0 0 0-.001-14.605M767.698 570.301a7.303 7.303 0 1 0 .001 14.605 7.303 7.303 0 0 0-.001-14.605M767.698 633.668a7.302 7.302 0 1 0 0 14.603 7.302 7.302 0 0 0 0-14.603M767.698 697.035a7.302 7.302 0 1 0 0 14.603 7.302 7.302 0 0 0 0-14.603M767.698 760.401a7.302 7.302 0 1 0 0 14.603 7.302 7.302 0 0 0 0-14.603M767.698 823.767a7.302 7.302 0 1 0 0 14.605 7.302 7.302 0 0 0 0-14.605M767.698 887.133a7.302 7.302 0 1 0 0 14.605 7.302 7.302 0 0 0 0-14.605M767.698 940.5a7.302 7.302 0 1 0 0 14.605 7.302 7.302 0 0 0 0-14.605M767.698 993.866a7.303 7.303 0 1 0 .002 14.606 7.303 7.303 0 0 0-.002-14.606"/></g></svg>