<svg width="66" height="66" fill="none" xmlns="http://www.w3.org/2000/svg"><g filter="url('#filter0_d_126_593')"><path fill-rule="evenodd" clip-rule="evenodd" d="M55.172 29c0-1.015-.148-1.885-.148-2.9l6.227-4.785c.594-.434.742-1.16.297-1.885L55.616 9.425c-.297-.58-1.186-.87-1.78-.58l-7.415 2.9c-1.483-1.16-3.262-2.176-5.042-2.9L40.341 1.16C40.193.58 39.599 0 38.858 0H26.993c-.741 0-1.335.58-1.483 1.16l-1.186 7.684c-1.78.725-3.41 1.74-5.043 2.9l-7.415-2.9c-.742-.288-1.483 0-1.78.58L4.154 19.432c-.296.579-.148 1.45.297 1.884l6.377 4.785c0 1.015-.148 1.885-.148 2.9s.148 1.885.148 2.9L4.6 36.685c-.594.434-.741 1.16-.297 1.884l5.932 10.006c.297.58 1.187.87 1.78.58l7.416-2.9c1.483 1.16 3.261 2.176 5.041 2.9l1.186 7.685c.15.725.742 1.16 1.483 1.16h11.865c.742 0 1.335-.58 1.483-1.16l1.188-7.684c1.778-.725 3.41-1.74 5.041-2.9l7.415 2.9c.742.288 1.483 0 1.78-.58l5.933-10.007c.297-.579.148-1.45-.297-1.884L55.024 31.9c.148-.87.148-1.885.148-2.9ZM32.926 39.15c-5.785 0-10.382-4.494-10.382-10.15 0-5.656 4.597-10.15 10.382-10.15 5.784 0 10.381 4.494 10.381 10.15 0 5.656-4.597 10.15-10.381 10.15Z" fill="#fff"/></g><defs><filter id="filter0_d_126_593" x="0" y="0" width="66" height="66" filterUnits="userSpaceOnUse" color-interpolation-filters="sRGB"><feFlood flood-opacity="0" result="BackgroundImageFix"/><feColorMatrix in="SourceAlpha" values="0 0 0 0 0 0 0 0 0 0 0 0 0 0 0 0 0 0 127 0" result="hardAlpha"/><feOffset dy="4"/><feGaussianBlur stdDeviation="2"/><feComposite in2="hardAlpha" operator="out"/><feColorMatrix values="0 0 0 0 0 0 0 0 0 0 0 0 0 0 0 0 0 0 0.25 0"/><feBlend in2="BackgroundImageFix" result="effect1_dropShadow_126_593"/><feBlend in="SourceGraphic" in2="effect1_dropShadow_126_593" result="shape"/></filter></defs></svg>