<svg width="364" height="50" fill="none" xmlns="http://www.w3.org/2000/svg"><path fill-rule="evenodd" clip-rule="evenodd" d="M17.333 16.667v-4.961c0-2.24.515-3.373 4.13-3.373H26V0h-7.57C9.154 0 6.094 4.089 6.094 11.107v5.56H0V25h6.094v25h11.24V25h7.637L26 16.667h-8.667ZM140.121 8h-30.045C108.435 8 107 9.182 107 10.804v30.11c0 1.633 1.435 3.086 3.076 3.086h30.036c1.65 0 2.888-1.463 2.888-3.085V10.804C143.009 9.182 141.762 8 140.121 8Zm-21.962 30.008h-5.157V21.972h5.157v16.036Zm-2.4-18.474h-.038c-1.65 0-2.719-1.228-2.719-2.766 0-1.566 1.097-2.766 2.785-2.766 1.688 0 2.719 1.19 2.757 2.766 0 1.538-1.069 2.766-2.785 2.766Zm21.249 18.474h-5.158V29.24c0-2.1-.75-3.535-2.616-3.535-1.425 0-2.269.966-2.645 1.903-.14.338-.178.797-.178 1.266v9.134h-5.157V21.972h5.157v2.232c.75-1.069 1.923-2.607 4.651-2.607 3.386 0 5.946 2.232 5.946 7.043v9.368ZM256 13.792a16.812 16.812 0 0 1-4.713 1.275c1.695-1 3.001-2.584 3.611-4.467-1.585.925-3.34 1.6-5.213 1.958A8.261 8.261 0 0 0 243.692 10c-4.535 0-8.205 3.617-8.205 8.075 0 .633.068 1.25.212 1.842a23.392 23.392 0 0 1-16.919-8.442 7.977 7.977 0 0 0-1.11 4.058c0 2.8 1.458 5.275 3.662 6.725a8.12 8.12 0 0 1-3.73-1.008v.1c0 3.917 2.831 7.175 6.586 7.917a8.388 8.388 0 0 1-2.161.283 7.87 7.87 0 0 1-1.543-.15c1.043 3.208 4.077 5.542 7.671 5.608a16.634 16.634 0 0 1-10.197 3.459c-.661 0-1.314-.042-1.958-.117 3.619 2.317 7.934 3.65 12.562 3.65 15.113 0 23.369-12.308 23.369-22.983 0-.35-.008-.7-.025-1.042A16.553 16.553 0 0 0 256 13.792Z" fill="#408196"/><circle cx="346.5" cy="26" r="7" fill="#408196"/><path fill-rule="evenodd" clip-rule="evenodd" d="M340.255 18.676a9.547 9.547 0 0 1 6.788-2.822 9.552 9.552 0 0 1 6.788 2.828 9.456 9.456 0 0 1 2.42 4.075h7.206v-9.686c0-2.272-1.756-4.028-4.028-4.028h-24.686c-2.272 0-4.2 1.756-4.2 4.029v9.685h7.292a9.465 9.465 0 0 1 2.42-4.08Zm20.459-2.502c0 .606-.491 1.098-1.097 1.098h-3.291a1.097 1.097 0 0 1-1.097-1.098v-3.291c0-.606.491-1.097 1.097-1.097h3.291c.606 0 1.097.491 1.097 1.097v3.291ZM353.831 32.252a9.526 9.526 0 0 1-6.788 2.801c-2.564 0-4.975-.982-6.788-2.795a9.628 9.628 0 0 1-2.812-6.758h-6.9v12.257c0 2.272 1.928 4.2 4.2 4.2h24.686c2.272 0 4.028-1.928 4.028-4.2V25.5h-6.814a9.616 9.616 0 0 1-2.812 6.752Z" fill="#408196"/></svg>